<svg xmlns="http://www.w3.org/2000/svg" width="12" height="12"><path d="M12 4.97v2h-1.1a4.862 4.862 0 01-.616 1.55l1.11 1.11-1.415 1.42L8.935 10a4.943 4.943 0 01-1.934.86V12h-2v-1.13a4.869 4.869 0 01-1.5-.58L2.49 11.3 1.076 9.88l.925-.92a5.006 5.006 0 01-.892-1.99H0v-2h1.1a4.883 4.883 0 01.8-1.84L.826 2.05 2.24.64l1.112 1.11A4.986 4.986 0 015 1.08V0h2v1.08a4.813 4.813 0 011.8.77L10.009.64l1.415 1.41-1.227 1.23a4.9 4.9 0 01.7 1.69H12zM6 3a3 3 0 103 3 3 3 0 00-3-3zm0 5a2 2 0 112-2 2 2 0 01-2 2z" fill="#72d0f4" fill-rule="evenodd"/></svg>